<svg width="50" height="50" viewBox="0 0 50 50" fill="none" xmlns="http://www.w3.org/2000/svg">
<path d="M24.9999 8.33333C26.5341 8.33333 27.7777 7.08966 27.7777 5.55555C27.7777 4.02144 26.5341 2.77777 24.9999 2.77777C23.4658 2.77777 22.2222 4.02144 22.2222 5.55555C22.2222 7.08966 23.4658 8.33333 24.9999 8.33333Z" stroke="white" stroke-width="2" stroke-linecap="round" stroke-linejoin="round"/>
<path d="M24.9999 27.7778C26.5341 27.7778 27.7777 26.5341 27.7777 25C27.7777 23.4659 26.5341 22.2222 24.9999 22.2222C23.4658 22.2222 22.2222 23.4659 22.2222 25C22.2222 26.5341 23.4658 27.7778 24.9999 27.7778Z" stroke="white" stroke-width="2" stroke-linecap="round" stroke-linejoin="round"/>
<path d="M24.9999 47.2222C26.5341 47.2222 27.7777 45.9786 27.7777 44.4445C27.7777 42.9103 26.5341 41.6667 24.9999 41.6667C23.4658 41.6667 22.2222 42.9103 22.2222 44.4445C22.2222 45.9786 23.4658 47.2222 24.9999 47.2222Z" stroke="white" stroke-width="2" stroke-linecap="round" stroke-linejoin="round"/>
<path d="M44.4443 8.33333C45.9784 8.33333 47.2221 7.08966 47.2221 5.55555C47.2221 4.02144 45.9784 2.77777 44.4443 2.77777C42.9101 2.77777 41.6665 4.02144 41.6665 5.55555C41.6665 7.08966 42.9101 8.33333 44.4443 8.33333Z" stroke="white" stroke-width="2" stroke-linecap="round" stroke-linejoin="round"/>
<path d="M44.4443 27.7778C45.9784 27.7778 47.2221 26.5341 47.2221 25C47.2221 23.4659 45.9784 22.2222 44.4443 22.2222C42.9101 22.2222 41.6665 23.4659 41.6665 25C41.6665 26.5341 42.9101 27.7778 44.4443 27.7778Z" stroke="white" stroke-width="2" stroke-linecap="round" stroke-linejoin="round"/>
<path d="M44.4443 47.2222C45.9784 47.2222 47.2221 45.9786 47.2221 44.4445C47.2221 42.9103 45.9784 41.6667 44.4443 41.6667C42.9101 41.6667 41.6665 42.9103 41.6665 44.4445C41.6665 45.9786 42.9101 47.2222 44.4443 47.2222Z" stroke="white" stroke-width="2" stroke-linecap="round" stroke-linejoin="round"/>
<path d="M5.55561 8.33333C7.08972 8.33333 8.33339 7.08966 8.33339 5.55555C8.33339 4.02144 7.08972 2.77777 5.55561 2.77777C4.0215 2.77777 2.77783 4.02144 2.77783 5.55555C2.77783 7.08966 4.0215 8.33333 5.55561 8.33333Z" stroke="white" stroke-width="2" stroke-linecap="round" stroke-linejoin="round"/>
<path d="M5.55561 27.7778C7.08972 27.7778 8.33339 26.5341 8.33339 25C8.33339 23.4659 7.08972 22.2222 5.55561 22.2222C4.0215 22.2222 2.77783 23.4659 2.77783 25C2.77783 26.5341 4.0215 27.7778 5.55561 27.7778Z" stroke="white" stroke-width="2" stroke-linecap="round" stroke-linejoin="round"/>
<path d="M5.55561 47.2222C7.08972 47.2222 8.33339 45.9786 8.33339 44.4445C8.33339 42.9103 7.08972 41.6667 5.55561 41.6667C4.0215 41.6667 2.77783 42.9103 2.77783 44.4445C2.77783 45.9786 4.0215 47.2222 5.55561 47.2222Z" stroke="white" stroke-width="2" stroke-linecap="round" stroke-linejoin="round"/>
</svg>
