<svg width="44" height="44" viewBox="0 0 44 44" fill="none" xmlns="http://www.w3.org/2000/svg">
<path d="M2.59723 29.594L6.57264 27.299C6.78797 27.1747 7.04066 27.1315 7.28505 27.1773L15.1069 28.6412C15.7497 28.7615 16.3431 28.2666 16.3402 27.6126L16.3098 20.7592C16.3089 20.573 16.358 20.39 16.4519 20.2292L20.3993 13.4712C20.6047 13.1195 20.5863 12.6803 20.3522 12.347L13.7059 2.8868M36.5836 7.12298C25.1253 12.625 31.3749 19.9167 33.4586 20.9584C37.3692 22.9133 42.8074 23.0416 42.8074 23.0416C42.8244 22.6965 42.8332 22.3493 42.8332 22C42.8332 10.494 33.5058 1.16663 21.9998 1.16663C10.4939 1.16663 1.1665 10.494 1.1665 22C1.1665 33.5059 10.4939 42.8333 21.9998 42.8333C22.3491 42.8333 22.6964 42.8247 23.0415 42.8077M31.9119 42.7079L25.3144 25.3145L42.7077 31.912L34.9949 34.995L31.9119 42.7079Z" stroke="white" stroke-width="2" stroke-linecap="round" stroke-linejoin="round"/>
</svg>
