<svg width="50" height="44" viewBox="0 0 50 44" fill="none" xmlns="http://www.w3.org/2000/svg">
<path d="M43.1819 40.9091V25M25.0001 40.9091V18.1818M6.81828 40.9091V31.8182M28.1971 6.88066L39.9435 11.2856M22.27 7.72934L9.54607 17.2723M45.5926 10.0894C46.9237 11.4207 46.9237 13.5792 45.5926 14.9106C44.2612 16.2419 42.1026 16.2419 40.7712 14.9106C39.4401 13.5792 39.4401 11.4207 40.7712 10.0894C42.1026 8.75805 44.2612 8.75805 45.5926 10.0894ZM9.22887 16.9076C10.5602 18.2389 10.5602 20.3974 9.22887 21.7288C7.89753 23.06 5.73903 23.06 4.40769 21.7288C3.07634 20.3974 3.07634 18.2389 4.40769 16.9076C5.73903 15.5762 7.89753 15.5762 9.22887 16.9076ZM27.4108 3.27121C28.7419 4.60255 28.7419 6.76105 27.4108 8.09239C26.0794 9.42373 23.9208 9.42373 22.5895 8.09239C21.2582 6.76105 21.2582 4.60255 22.5895 3.27121C23.9208 1.93987 26.0794 1.93987 27.4108 3.27121Z" stroke="white" stroke-width="2" stroke-linecap="round" stroke-linejoin="round"/>
</svg>
