<svg width="50" height="50" viewBox="0 0 50 50" fill="none" xmlns="http://www.w3.org/2000/svg">
<path d="M11.0755 40.4967C12.3428 37.5109 15.3018 35.4167 18.7498 35.4167H31.2498C34.6979 35.4167 37.6569 37.5109 38.9242 40.4967M33.3332 19.7917C33.3332 24.3941 29.6022 28.125 24.9998 28.125C20.3975 28.125 16.6665 24.3941 16.6665 19.7917C16.6665 15.1893 20.3975 11.4584 24.9998 11.4584C29.6022 11.4584 33.3332 15.1893 33.3332 19.7917ZM45.8332 25C45.8332 36.506 36.5058 45.8334 24.9998 45.8334C13.4939 45.8334 4.1665 36.506 4.1665 25C4.1665 13.4941 13.4939 4.16669 24.9998 4.16669C36.5058 4.16669 45.8332 13.4941 45.8332 25Z" stroke="white" stroke-width="2" stroke-linecap="round" stroke-linejoin="round"/>
</svg>
